<svg version="1.1" id="Layer_1" xmlns="http://www.w3.org/2000/svg" xmlns:xlink="http://www.w3.org/1999/xlink" x="0px" y="0px"
   width="140.531px" height="168px" viewBox="0 0 140.531 168" enable-background="new 0 0 140.531 168" xml:space="preserve">
<g>
  <linearGradient id="SVGID_1_" gradientUnits="userSpaceOnUse" x1="84" y1="102.6426" x2="84" y2="66.6895">
    <stop  offset="0" style="stop-color:#B3BECD"/>
    <stop  offset="1" style="stop-color:#8496AE"/>
  </linearGradient>
  <circle fill="url(#SVGID_1_)" cx="84" cy="84.666" r="17.977"/>
  <linearGradient id="SVGID_2_" gradientUnits="userSpaceOnUse" x1="70.2656" y1="168" x2="70.2656" y2="4.882812e-04">
    <stop  offset="0" style="stop-color:#B3BECD"/>
    <stop  offset="1" style="stop-color:#8496AE"/>
  </linearGradient>
  <path fill="url(#SVGID_2_)" d="M104.593,105.968c-0.777-0.796-1.814-1.204-2.861-1.204c-0.81,0-1.621,0.244-2.321,0.744
    c-4.425,3.156-9.638,4.825-15.076,4.825c-14.337,0-26.001-11.663-26.001-26s11.664-26,26.001-26c5.253,0,10.313,1.561,14.638,4.513
    c0.687,0.468,1.473,0.697,2.256,0.697c1.041,0,2.074-0.406,2.851-1.193l35.304-35.85c0.774-0.786,1.189-1.856,1.146-2.958
    c-0.041-1.103-0.536-2.138-1.367-2.863C123.866,7.344,104.276,0,84,0C37.682,0,0,37.682,0,84c0,46.318,37.682,84,84,84
    c20.261,0,39.84-7.334,55.13-20.65c0.83-0.725,1.326-1.757,1.37-2.856c0.044-1.101-0.367-2.169-1.138-2.956L104.593,105.968z
     M103.565,143.023c-6.291,2.106-12.873,3.177-19.566,3.177c-33.93,0-61.534-27.604-61.534-61.534
    c0-33.93,27.604-61.534,61.534-61.534c6.693,0,13.275,1.069,19.566,3.177c2.619,0.877,4.029,3.711,3.152,6.33
    c-0.878,2.619-3.712,4.03-6.33,3.152c-5.265-1.764-10.777-2.659-16.39-2.659c-28.415,0-51.534,23.118-51.534,51.534
    S55.583,136.2,83.998,136.2c5.61,0,11.125-0.896,16.39-2.659c2.617-0.873,5.452,0.533,6.33,3.152
    C107.595,139.311,106.185,142.145,103.565,143.023z"/>
</g>
</svg>
